<mxfile host="app.diagrams.net" modified="2022-11-06T06:43:38.581Z" agent="5.0 (Macintosh; Intel Mac OS X 10_15_7) AppleWebKit/537.36 (KHTML, like Gecko) Chrome/106.0.0.0 Safari/537.36" etag="Gf4s7jL1B1TCKnVYPPiR" version="20.4.1" type="github">
  <diagram name="Page-1" id="74e2e168-ea6b-b213-b513-2b3c1d86103e">
    <mxGraphModel dx="1455" dy="857" grid="1" gridSize="10" guides="1" tooltips="1" connect="1" arrows="1" fold="1" page="1" pageScale="1" pageWidth="1100" pageHeight="850" background="none" math="0" shadow="0">
      <root>
        <mxCell id="0" />
        <mxCell id="1" parent="0" />
        <mxCell id="77e6c97f196da883-1" value="大亲子监控系统架构图" style="swimlane;html=1;childLayout=stackLayout;startSize=40;rounded=0;shadow=0;labelBackgroundColor=none;strokeWidth=1;fontFamily=Verdana;fontSize=8;align=center;" parent="1" vertex="1">
          <mxGeometry x="70" y="40" width="1040" height="590" as="geometry" />
        </mxCell>
        <mxCell id="77e6c97f196da883-2" value="FE" style="swimlane;html=1;startSize=30;" parent="77e6c97f196da883-1" vertex="1">
          <mxGeometry y="40" width="200" height="550" as="geometry" />
        </mxCell>
        <mxCell id="77e6c97f196da883-8" value="根据条件查询" style="rounded=1;whiteSpace=wrap;html=1;shadow=0;labelBackgroundColor=none;strokeWidth=1;fontFamily=Verdana;fontSize=8;align=center;" parent="77e6c97f196da883-2" vertex="1">
          <mxGeometry x="20" y="205" width="90" height="35" as="geometry" />
        </mxCell>
        <mxCell id="77e6c97f196da883-26" style="edgeStyle=orthogonalEdgeStyle;rounded=1;html=1;labelBackgroundColor=none;startArrow=none;startFill=0;startSize=5;endArrow=classicThin;endFill=1;endSize=5;jettySize=auto;orthogonalLoop=1;strokeWidth=1;fontFamily=Verdana;fontSize=8" parent="77e6c97f196da883-1" source="77e6c97f196da883-8" target="77e6c97f196da883-11" edge="1">
          <mxGeometry relative="1" as="geometry" />
        </mxCell>
        <mxCell id="77e6c97f196da883-3" value="监控平台" style="swimlane;html=1;startSize=30;" parent="77e6c97f196da883-1" vertex="1">
          <mxGeometry x="200" y="40" width="200" height="550" as="geometry" />
        </mxCell>
        <mxCell id="77e6c97f196da883-11" value="搜索能力" style="rounded=1;whiteSpace=wrap;html=1;shadow=0;labelBackgroundColor=none;strokeWidth=1;fontFamily=Verdana;fontSize=8;align=center;" parent="77e6c97f196da883-3" vertex="1">
          <mxGeometry x="50" y="205" width="80" height="35" as="geometry" />
        </mxCell>
        <mxCell id="LR1aAYArKkP1EbdD9pHU-27" style="edgeStyle=orthogonalEdgeStyle;rounded=0;orthogonalLoop=1;jettySize=auto;html=1;entryX=0.5;entryY=0;entryDx=0;entryDy=0;" edge="1" parent="77e6c97f196da883-3" source="LR1aAYArKkP1EbdD9pHU-19" target="LR1aAYArKkP1EbdD9pHU-20">
          <mxGeometry relative="1" as="geometry" />
        </mxCell>
        <mxCell id="LR1aAYArKkP1EbdD9pHU-19" value="解析后的检索结果" style="rounded=1;whiteSpace=wrap;html=1;shadow=0;labelBackgroundColor=none;strokeWidth=1;fontFamily=Verdana;fontSize=8;align=center;" vertex="1" parent="77e6c97f196da883-3">
          <mxGeometry x="25" y="360" width="110" height="35" as="geometry" />
        </mxCell>
        <mxCell id="LR1aAYArKkP1EbdD9pHU-20" value="可视化展示" style="rounded=1;whiteSpace=wrap;html=1;shadow=0;labelBackgroundColor=none;strokeWidth=1;fontFamily=Verdana;fontSize=8;align=center;" vertex="1" parent="77e6c97f196da883-3">
          <mxGeometry x="25" y="460" width="110" height="35" as="geometry" />
        </mxCell>
        <mxCell id="77e6c97f196da883-4" value="监控系统" style="swimlane;html=1;startSize=30;" parent="77e6c97f196da883-1" vertex="1">
          <mxGeometry x="400" y="40" width="200" height="550" as="geometry" />
        </mxCell>
        <mxCell id="77e6c97f196da883-12" value="搜索中转" style="rounded=1;whiteSpace=wrap;html=1;shadow=0;labelBackgroundColor=none;strokeWidth=1;fontFamily=Verdana;fontSize=8;align=center;" parent="77e6c97f196da883-4" vertex="1">
          <mxGeometry x="60" y="205" width="80" height="35" as="geometry" />
        </mxCell>
        <mxCell id="LR1aAYArKkP1EbdD9pHU-4" value="搜索条件" style="text;html=1;align=center;verticalAlign=middle;resizable=0;points=[];autosize=1;strokeColor=none;fillColor=none;" vertex="1" parent="77e6c97f196da883-4">
          <mxGeometry x="-40" y="190" width="70" height="30" as="geometry" />
        </mxCell>
        <mxCell id="LR1aAYArKkP1EbdD9pHU-18" value="检索结果分类解析" style="rounded=1;whiteSpace=wrap;html=1;shadow=0;labelBackgroundColor=none;strokeWidth=1;fontFamily=Verdana;fontSize=8;align=center;" vertex="1" parent="77e6c97f196da883-4">
          <mxGeometry x="30" y="360" width="110" height="35" as="geometry" />
        </mxCell>
        <mxCell id="77e6c97f196da883-5" value="apm系统" style="swimlane;html=1;startSize=30;" parent="77e6c97f196da883-1" vertex="1">
          <mxGeometry x="600" y="40" width="240" height="550" as="geometry" />
        </mxCell>
        <mxCell id="LR1aAYArKkP1EbdD9pHU-14" value="" style="rounded=0;whiteSpace=wrap;html=1;shadow=0;labelBackgroundColor=none;strokeWidth=1;fontFamily=Verdana;fontSize=8;align=center;" vertex="1" parent="77e6c97f196da883-5">
          <mxGeometry x="80" y="40" width="120" height="210" as="geometry" />
        </mxCell>
        <mxCell id="LR1aAYArKkP1EbdD9pHU-5" value="检索白屏指标" style="rounded=1;whiteSpace=wrap;html=1;shadow=0;labelBackgroundColor=none;strokeWidth=1;fontFamily=Verdana;fontSize=8;align=center;" vertex="1" parent="77e6c97f196da883-5">
          <mxGeometry x="100" y="70" width="90" height="40" as="geometry" />
        </mxCell>
        <mxCell id="LR1aAYArKkP1EbdD9pHU-6" value="检索性能指标" style="rounded=1;whiteSpace=wrap;html=1;shadow=0;labelBackgroundColor=none;strokeWidth=1;fontFamily=Verdana;fontSize=8;align=center;" vertex="1" parent="77e6c97f196da883-5">
          <mxGeometry x="100" y="130" width="90" height="40" as="geometry" />
        </mxCell>
        <mxCell id="LR1aAYArKkP1EbdD9pHU-7" value="检索接口指标" style="rounded=1;whiteSpace=wrap;html=1;shadow=0;labelBackgroundColor=none;strokeWidth=1;fontFamily=Verdana;fontSize=8;align=center;" vertex="1" parent="77e6c97f196da883-5">
          <mxGeometry x="100" y="190" width="90" height="40" as="geometry" />
        </mxCell>
        <mxCell id="77e6c97f196da883-7" value="sentry系统" style="swimlane;html=1;startSize=30;" parent="77e6c97f196da883-1" vertex="1">
          <mxGeometry x="840" y="40" width="200" height="550" as="geometry" />
        </mxCell>
        <mxCell id="LR1aAYArKkP1EbdD9pHU-11" value="检索js异常指标" style="rounded=1;whiteSpace=wrap;html=1;shadow=0;labelBackgroundColor=none;strokeWidth=1;fontFamily=Verdana;fontSize=8;align=center;" vertex="1" parent="77e6c97f196da883-7">
          <mxGeometry x="30" y="260" width="100" height="40" as="geometry" />
        </mxCell>
        <mxCell id="LR1aAYArKkP1EbdD9pHU-25" value="返回检索结果" style="text;html=1;align=center;verticalAlign=middle;resizable=0;points=[];autosize=1;strokeColor=none;fillColor=none;" vertex="1" parent="77e6c97f196da883-7">
          <mxGeometry x="30" y="330" width="100" height="30" as="geometry" />
        </mxCell>
        <mxCell id="LR1aAYArKkP1EbdD9pHU-21" style="edgeStyle=orthogonalEdgeStyle;rounded=0;orthogonalLoop=1;jettySize=auto;html=1;entryX=1;entryY=0.5;entryDx=0;entryDy=0;exitX=0.5;exitY=1;exitDx=0;exitDy=0;" edge="1" parent="77e6c97f196da883-1" source="LR1aAYArKkP1EbdD9pHU-14" target="LR1aAYArKkP1EbdD9pHU-18">
          <mxGeometry relative="1" as="geometry">
            <Array as="points">
              <mxPoint x="740" y="397" />
            </Array>
          </mxGeometry>
        </mxCell>
        <mxCell id="LR1aAYArKkP1EbdD9pHU-26" style="edgeStyle=orthogonalEdgeStyle;rounded=0;orthogonalLoop=1;jettySize=auto;html=1;entryX=1;entryY=0.5;entryDx=0;entryDy=0;" edge="1" parent="77e6c97f196da883-1" source="LR1aAYArKkP1EbdD9pHU-18" target="LR1aAYArKkP1EbdD9pHU-19">
          <mxGeometry relative="1" as="geometry" />
        </mxCell>
        <mxCell id="LR1aAYArKkP1EbdD9pHU-28" style="edgeStyle=orthogonalEdgeStyle;rounded=0;orthogonalLoop=1;jettySize=auto;html=1;entryX=0;entryY=0.5;entryDx=0;entryDy=0;" edge="1" parent="77e6c97f196da883-1" source="77e6c97f196da883-11" target="77e6c97f196da883-12">
          <mxGeometry relative="1" as="geometry" />
        </mxCell>
        <mxCell id="LR1aAYArKkP1EbdD9pHU-29" style="edgeStyle=orthogonalEdgeStyle;rounded=0;orthogonalLoop=1;jettySize=auto;html=1;entryX=0;entryY=0.5;entryDx=0;entryDy=0;" edge="1" parent="77e6c97f196da883-1" source="77e6c97f196da883-12" target="LR1aAYArKkP1EbdD9pHU-11">
          <mxGeometry relative="1" as="geometry">
            <Array as="points">
              <mxPoint x="620" y="243" />
              <mxPoint x="620" y="300" />
            </Array>
          </mxGeometry>
        </mxCell>
        <mxCell id="LR1aAYArKkP1EbdD9pHU-30" style="edgeStyle=orthogonalEdgeStyle;rounded=0;orthogonalLoop=1;jettySize=auto;html=1;entryX=0;entryY=0.5;entryDx=0;entryDy=0;" edge="1" parent="77e6c97f196da883-1" source="77e6c97f196da883-12" target="LR1aAYArKkP1EbdD9pHU-14">
          <mxGeometry relative="1" as="geometry">
            <Array as="points">
              <mxPoint x="620" y="243" />
              <mxPoint x="620" y="165" />
            </Array>
          </mxGeometry>
        </mxCell>
        <mxCell id="LR1aAYArKkP1EbdD9pHU-32" style="edgeStyle=orthogonalEdgeStyle;rounded=0;orthogonalLoop=1;jettySize=auto;html=1;entryX=1;entryY=0.5;entryDx=0;entryDy=0;exitX=0.5;exitY=1;exitDx=0;exitDy=0;" edge="1" parent="77e6c97f196da883-1" source="LR1aAYArKkP1EbdD9pHU-11" target="LR1aAYArKkP1EbdD9pHU-18">
          <mxGeometry relative="1" as="geometry" />
        </mxCell>
        <mxCell id="LR1aAYArKkP1EbdD9pHU-24" value="返回检索结果" style="text;html=1;align=center;verticalAlign=middle;resizable=0;points=[];autosize=1;strokeColor=none;fillColor=none;" vertex="1" parent="1">
          <mxGeometry x="619" y="380" width="100" height="30" as="geometry" />
        </mxCell>
      </root>
    </mxGraphModel>
  </diagram>
</mxfile>
